<svg id="visual" viewBox="0 0 960 474" width="960" height="474" xmlns="http://www.w3.org/2000/svg" xmlns:xlink="http://www.w3.org/1999/xlink" version="1.1"><rect x="0" y="0" width="960" height="474" fill="#ffffff"></rect><path d="M0 207L22.8 205.2C45.7 203.3 91.3 199.7 137 182C182.7 164.3 228.3 132.7 274 117.3C319.7 102 365.3 103 411.2 117.7C457 132.3 503 160.7 548.8 164C594.7 167.3 640.3 145.7 686 123C731.7 100.3 777.3 76.7 823 64.2C868.7 51.7 914.3 50.3 937.2 49.7L960 49L960 0L937.2 0C914.3 0 868.7 0 823 0C777.3 0 731.7 0 686 0C640.3 0 594.7 0 548.8 0C503 0 457 0 411.2 0C365.3 0 319.7 0 274 0C228.3 0 182.7 0 137 0C91.3 0 45.7 0 22.8 0L0 0Z" fill="rgba(98, 180, 102, .1)" stroke-linecap="round" stroke-linejoin="miter"></path></svg>