<svg id="visual" viewBox="0 0 1920 1080" width="1920" height="1080" xmlns="http://www.w3.org/2000/svg" xmlns:xlink="http://www.w3.org/1999/xlink" version="1.1"><rect x="0" y="0" width="1920" height="1080" fill="#ffffff"></rect><path d="M0 896L80 869.5C160 843 320 790 480 719.7C640 649.3 800 561.7 960 572C1120 582.3 1280 690.7 1440 680.2C1600 669.7 1760 540.3 1840 475.7L1920 411L1920 1081L1840 1081C1760 1081 1600 1081 1440 1081C1280 1081 1120 1081 960 1081C800 1081 640 1081 480 1081C320 1081 160 1081 80 1081L0 1081Z" fill="rgba(98, 180, 102, .1)" stroke-linecap="round" stroke-linejoin="miter"></path></svg>