<svg id="visual" viewBox="0 0 960 474" width="960" height="474" xmlns="http://www.w3.org/2000/svg" xmlns:xlink="http://www.w3.org/1999/xlink" version="1.1"><rect x="0" y="0" width="960" height="474" fill="rgba(98, 180, 102, .1)"></rect><g transform="translate(965.7591599286103 0.18208683144717952)"><path d="M258.1 -475.6C311.2 -416.4 315 -300.2 353.2 -211.4C391.5 -122.7 464.2 -61.3 505.2 23.6C546.1 108.6 555.3 217.2 517.3 306.5C479.3 395.7 394.1 465.4 300.1 499.9C206 534.5 103 533.7 31.1 479.8C-40.7 425.9 -81.5 318.8 -159.1 274.8C-236.8 230.8 -351.4 249.9 -429.8 214.6C-508.3 179.3 -550.6 89.7 -552.8 -1.2C-555 -92.2 -516.9 -184.3 -446 -232.7C-375.1 -281 -271.3 -285.6 -191.5 -329.3C-111.7 -373.1 -55.8 -456 23.3 -496.5C102.5 -536.9 205 -534.7 258.1 -475.6" fill="#62b466"></path></g></svg>